<?xml version="1.0" encoding="utf-8"?>
<!-- Generator: Adobe Illustrator 27.8.1, SVG Export Plug-In . SVG Version: 6.00 Build 0)  -->
<svg version="1.1" id="Layer_1" xmlns="http://www.w3.org/2000/svg" xmlns:xlink="http://www.w3.org/1999/xlink" x="0px" y="0px"
	 viewBox="0 0 324.2 252" style="enable-background:new 0 0 324.2 252;" xml:space="preserve">
<style type="text/css">
	.st0{fill:url(#SVGID_1_);}
</style>
<linearGradient id="SVGID_1_" gradientUnits="userSpaceOnUse" x1="118.3086" y1="349.0181" x2="245.1572" y2="149.8712" gradientTransform="matrix(1 0 0 -1 0 322)">
	<stop  offset="5.540901e-07" style="stop-color:#FFFFFF"/>
	<stop  offset="1" style="stop-color:#534741"/>
</linearGradient>
<path class="st0" d="M94.6,73h24.5l14,33H94.6V73z M229.6,146h-56.7l-9.3,21.9V179h66V146z M229.6,73h-25.3l-13.8,33h39.2L229.6,73
	L229.6,73z M194.6,143v-33h-6.3l-13.8,33H194.6z M94.6,179h66v-10.5l-9.7-22.5H94.6L94.6,179L94.6,179z M135.3,110h-5.7v33h19.7
	L135.3,110z M233.6,179h14.4l14.1-33h-28.5V179z M195.6,183h-66v33h66V183z M198.6,143h65.2l0.8-1.8V110h-66V143z M56.6,36H15.7
	l14,33h26.9V36z M21.6,0H0l13.6,32h8V0z M91.6,6.3L88.9,0H25.6v32h66L91.6,6.3L91.6,6.3z M233.6,106h45.6l14.1-33h-59.7V106z
	 M90.6,73H30.9l14,33h45.7V73z M267.6,69h26.8l14.1-33h-40.9L267.6,69L267.6,69z M160.6,252v-32h-66v2.7l12.7,29.3H160.6z
	 M198.6,183v33h33.2l14.1-33H198.6z M229.6,222.1V220h-66v32h53L229.6,222.1z M267.6,133l9.8-23h-9.8V133z M234.1,0l-1.4,3.4V32h66
	V0H234.1z M302.6,0v32h8l13.6-32H302.6z M56.6,110h-9.9l9.9,23.3V110z M94.6,14.4V32h7.5L94.6,14.4z M206.4,69h58.2V36h-44.4
	L206.4,69z M221,32h8.6V11.5L221,32z M59.6,69h57.3l-14-33H59.6V69z M60.3,143h65.4v-33h-66v31.5L60.3,143z M90.6,146H62l14,33h14.6
	L90.6,146L90.6,146z M125.6,183H78.1l14,33h33.5V183z"/>
</svg>
